<svg xmlns="http://www.w3.org/2000/svg" viewBox="0 0 219.16 65.44"><defs><style>.cls-1{fill:#fff;}</style></defs><g id="Layer_2" data-name="Layer 2"><g id="Layer_1-2" data-name="Layer 1"><path class="cls-1" d="M70.78,31.19H68.21V28h2.57V27c0-6.81,5.15-7.67,7.76-7.67a8.77,8.77,0,0,1,1.51.12v3.39a5.88,5.88,0,0,0-1-.08c-1.51,0-4.33.49-4.33,4.32V28h4.9v3.18H74.7V48.38H70.78Z"></path><path class="cls-1" d="M83.64,43a8.84,8.84,0,0,0,5.92,2.41c1.71,0,3.42-.9,3.42-2.57,0-3.8-10.61-3-10.61-9.76,0-3.75,3.35-5.87,7.47-5.87,4.53,0,6.65,2.28,6.65,2.28l-1.59,3a7.56,7.56,0,0,0-5.1-1.84c-1.71,0-3.39.74-3.39,2.53,0,3.72,10.61,2.9,10.61,9.68,0,3.42-2.94,6-7.46,6a11.11,11.11,0,0,1-7.84-3Z"></path><path class="cls-1" d="M109.67,27.24c4.78,0,6.37,3.26,6.37,3.26h.08a11.89,11.89,0,0,1-.08-1.39V19.56h4V48.38h-3.76v-2c0-.82.05-1.39.05-1.39h-.09a7.22,7.22,0,0,1-6.77,3.83c-5.59,0-9.1-4.4-9.1-10.81,0-6.57,3.88-10.81,9.34-10.81m.53,18.2c3.07,0,6-2.17,6-7.43,0-3.67-1.92-7.35-5.83-7.35-3.27,0-6,2.7-6,7.39,0,4.49,2.41,7.39,5.83,7.39"></path><path class="cls-1" d="M137.67,35.93H139v-.69c0-4.53-2.33-6.08-5.6-6.08a9.59,9.59,0,0,0-5.83,1.95l-1-1.38a10.67,10.67,0,0,1,6.9-2.25c4.69,0,7.22,2.61,7.22,7.71V48.38H139v-2.7a9.42,9.42,0,0,1,.16-1.83h-.08s-1.84,5-7.14,5C128.65,48.86,125,47,125,43c0-6.94,9-7,12.65-7M132,47.27c4.45,0,7-4.61,7-8.65v-1.1h-1.31c-3.47,0-10.9,0-10.9,5.31,0,2.16,1.76,4.44,5.23,4.44"></path><path class="cls-1" d="M148.36,29.64h-2.57V28.09h2.57v-.93c0-6.74,4.41-7.55,6.45-7.55a6.1,6.1,0,0,1,1.06.08v1.59a4.9,4.9,0,0,0-.94-.08c-1.63,0-4.85.65-4.85,5.91v1h5.59v1.55h-5.59V48.38h-1.72Z"></path><path class="cls-1" d="M160,28h1.71v3.88a8.66,8.66,0,0,1-.16,1.67h.08c1-3.14,3.31-5.71,6.53-5.71a6.49,6.49,0,0,1,1.18.12v1.71a6.76,6.76,0,0,0-.93-.08c-3.19,0-5.19,2.7-6.08,5.72a14.4,14.4,0,0,0-.62,4.28v8.81H160Z"></path><path class="cls-1" d="M173.58,19.81h2v3h-2Zm.16,8.16h1.72v20.4h-1.72Z"></path><path class="cls-1" d="M191.74,27.48a9.81,9.81,0,0,1,7.3,2.9L198,31.77a8.84,8.84,0,0,0-6.24-2.62c-4.78,0-8.73,3.56-8.73,9.06a8.6,8.6,0,0,0,8.73,9,9,9,0,0,0,6.81-2.94l.9,1.43a10.4,10.4,0,0,1-7.71,3.18,10.26,10.26,0,0,1-10.53-10.65,10.38,10.38,0,0,1,10.53-10.73"></path><path class="cls-1" d="M216.1,35.93h1.35v-.69c0-4.53-2.33-6.08-5.59-6.08A9.64,9.64,0,0,0,206,31.11l-1-1.38a10.67,10.67,0,0,1,6.9-2.25c4.69,0,7.22,2.61,7.22,7.71V48.38h-1.71v-2.7a9.42,9.42,0,0,1,.16-1.83h-.08s-1.84,5-7.14,5c-3.31,0-6.94-1.83-6.94-5.91,0-6.94,9-7,12.65-7m-5.63,11.34c4.45,0,7-4.61,7-8.65v-1.1h-1.31c-3.47,0-10.89,0-10.89,5.31,0,2.16,1.75,4.44,5.22,4.44"></path><path class="cls-1" d="M24.91,3.4A31.79,31.79,0,0,0,0,1.82L8.72,15.89l4.95,0A66,66,0,0,1,37.05,20c1.2.45,2.38.93,3.55,1.44l.11,0a32,32,0,0,0-15.8-18"></path><path class="cls-1" d="M47.38,22.4a22.28,22.28,0,0,1-6.67-1v0a65.51,65.51,0,0,1,15.85,9.91l9-18.38A22.57,22.57,0,0,1,47.38,22.4"></path><path class="cls-1" d="M13.69,19.52l-2.71,0,.21.33A66.09,66.09,0,0,1,36.07,51a65.35,65.35,0,0,1,3.72,14.43l15.1-30.68a62,62,0,0,0-41.2-15.24"></path></g></g></svg>